# 3ds Max Wavefront OBJ Exporter v0.99 - (c)2007 guruware
# File Created: 26.04.2021 22:24:18

#
# object Floor
#

v  -0.4882 0.0000 0.4277
v  -0.4654 0.0000 0.4654
v  -0.4277 0.0000 0.4882
v  -0.3747 0.0000 0.4957
v  0.3747 0.0000 0.4957
v  0.4277 0.0000 0.4882
v  0.4654 0.0000 0.4654
v  0.4882 0.0000 0.4277
v  0.4957 0.0000 0.3747
v  0.4957 0.0000 -0.3747
v  0.4882 0.0000 -0.4277
v  0.4654 0.0000 -0.4654
v  0.4277 0.0000 -0.4882
v  0.3747 0.0000 -0.4957
v  -0.3747 0.0000 -0.4957
v  -0.4277 0.0000 -0.4882
v  -0.4654 0.0000 -0.4654
v  -0.4882 0.0000 -0.4277
v  -0.4957 0.0000 -0.3747
v  -0.4957 0.0000 0.3747
v  0.3747 -1.0581 0.4957
v  -0.3747 -1.0581 0.4957
v  0.4957 -1.0581 -0.3747
v  0.4957 -1.0581 0.3747
v  -0.3747 -1.0581 -0.4957
v  0.3747 -1.0581 -0.4957
v  -0.4957 -1.0581 0.3747
v  -0.4957 -1.0581 -0.3747
v  0.4277 -1.0581 0.4882
v  0.4654 -1.0581 0.4654
v  -0.4277 -1.0581 0.4882
v  -0.4654 -1.0581 0.4654
v  0.4882 -1.0581 -0.4277
v  0.4654 -1.0581 -0.4654
v  0.4882 -1.0581 0.4277
v  -0.4277 -1.0581 -0.4882
v  -0.4654 -1.0581 -0.4654
v  0.4277 -1.0581 -0.4882
v  -0.4882 -1.0581 0.4277
v  -0.4882 -1.0581 -0.4277
v  -0.1931 -1.6406 0.2205
v  -0.1692 -1.6406 0.2239
v  -0.2102 -1.6406 0.2102
v  -0.2205 -1.6406 0.1931
v  -0.2239 -1.6406 0.1692
v  -0.2239 -1.6406 -0.1692
v  -0.2205 -1.6406 -0.1931
v  -0.2102 -1.6406 -0.2102
v  -0.1931 -1.6406 -0.2205
v  -0.1692 -1.6406 -0.2239
v  0.1692 -1.6406 -0.2239
v  0.1931 -1.6406 -0.2205
v  0.2102 -1.6406 -0.2102
v  0.2205 -1.6406 -0.1931
v  0.2239 -1.6406 -0.1692
v  0.2239 -1.6406 0.1692
v  0.2205 -1.6406 0.1931
v  0.2102 -1.6406 0.2102
v  0.1931 -1.6406 0.2205
v  0.1692 -1.6406 0.2239
# 60 vertices

vn 0.0000 1.0000 -0.0000
vn 0.0709 0.0000 0.9975
vn -0.0709 0.0000 0.9975
vn 0.9975 0.0000 -0.0709
vn 0.9975 0.0000 0.0709
vn -0.0709 0.0000 -0.9975
vn 0.0709 0.0000 -0.9975
vn -0.9975 0.0000 0.0709
vn -0.9975 0.0000 -0.0709
vn 0.3346 0.0000 0.9424
vn 0.7071 0.0000 0.7071
vn -0.3346 0.0000 0.9424
vn -0.7071 0.0000 0.7071
vn 0.9424 0.0000 -0.3346
vn 0.7071 0.0000 -0.7071
vn 0.9424 0.0000 0.3346
vn -0.3346 0.0000 -0.9424
vn -0.7071 0.0000 -0.7071
vn 0.3346 0.0000 -0.9424
vn -0.9424 0.0000 0.3346
vn -0.9424 0.0000 -0.3346
vn -0.1241 -0.4793 0.8688
vn -0.4331 -0.5399 0.7218
vn -0.7218 -0.5399 0.4331
vn -0.8688 -0.4793 0.1241
vn -0.8952 -0.4457 -0.0000
vn -0.8688 -0.4793 -0.1241
vn -0.7218 -0.5399 -0.4331
vn -0.4331 -0.5399 -0.7218
vn -0.1241 -0.4793 -0.8688
vn 0.0000 -0.4457 -0.8952
vn 0.1241 -0.4793 -0.8688
vn 0.4331 -0.5399 -0.7218
vn 0.7218 -0.5399 -0.4331
vn 0.8688 -0.4793 -0.1241
vn 0.8952 -0.4457 -0.0000
vn 0.8688 -0.4793 0.1241
vn 0.7218 -0.5399 0.4331
vn 0.4331 -0.5399 0.7218
vn 0.1241 -0.4793 0.8688
vn 0.0000 -0.4457 0.8952
# 41 vertex normals

vt 0.5515 0.6775 0.0000
vt 0.5594 0.6644 0.0000
vt 0.5725 0.6565 0.0000
vt 0.5910 0.6538 0.0000
vt 0.8519 0.6538 0.0000
vt 0.8703 0.6565 0.0000
vt 0.8835 0.6644 0.0000
vt 0.8914 0.6775 0.0000
vt 0.8940 0.6960 0.0000
vt 0.8940 0.9569 0.0000
vt 0.8914 0.9753 0.0000
vt 0.8835 0.9885 0.0000
vt 0.8703 0.9964 0.0000
vt 0.8519 0.9990 0.0000
vt 0.5910 0.9990 0.0000
vt 0.5725 0.9964 0.0000
vt 0.5594 0.9885 0.0000
vt 0.5515 0.9753 0.0000
vt 0.5488 0.9569 0.0000
vt 0.5488 0.6960 0.0000
vt 0.5289 0.3659 0.0000
vt 0.8741 0.3659 0.0000
vt 0.8741 0.6268 0.0000
vt 0.5289 0.6268 0.0000
vt 0.3553 0.8812 0.0000
vt 0.0101 0.8812 0.0000
vt 0.0101 0.6203 0.0000
vt 0.3553 0.6203 0.0000
vt 0.6886 0.2935 0.0000
vt 0.3434 0.2935 0.0000
vt 0.3434 0.0326 0.0000
vt 0.6886 0.0326 0.0000
vt 0.0405 0.3507 0.0000
vt 0.0405 0.0056 0.0000
vt 0.3014 0.0056 0.0000
vt 0.3014 0.3507 0.0000
vt 0.5289 0.3474 0.0000
vt 0.8741 0.3474 0.0000
vt 0.0101 0.5808 0.0000
vt 0.3553 0.5808 0.0000
vt 0.3553 0.5887 0.0000
vt 0.0101 0.5887 0.0000
vt 0.8741 0.6452 0.0000
vt 0.5289 0.6452 0.0000
vt 0.0010 0.3507 0.0000
vt 0.0010 0.0056 0.0000
vt 0.0089 0.0056 0.0000
vt 0.0089 0.3507 0.0000
vt 0.3553 0.8996 0.0000
vt 0.0101 0.8996 0.0000
vt 0.3553 0.9128 0.0000
vt 0.0101 0.9128 0.0000
vt 0.0101 0.6019 0.0000
vt 0.3553 0.6019 0.0000
vt 0.6886 0.3119 0.0000
vt 0.3434 0.3119 0.0000
vt 0.3409 0.0056 0.0000
vt 0.3409 0.3507 0.0000
vt 0.3330 0.3507 0.0000
vt 0.3330 0.0056 0.0000
vt 0.3434 0.0142 0.0000
vt 0.6886 0.0142 0.0000
vt 0.3553 0.9207 0.0000
vt 0.0101 0.9207 0.0000
vt 0.0221 0.3507 0.0000
vt 0.0221 0.0056 0.0000
vt 0.3198 0.0056 0.0000
vt 0.3198 0.3507 0.0000
vt 0.3388 0.5635 0.0000
vt 0.3388 0.5552 0.0000
vt 0.5289 0.6584 0.0000
vt 0.3388 0.5695 0.0000
vt 0.1037 0.5408 0.0000
vt 0.0978 0.5408 0.0000
vt 0.1120 0.5408 0.0000
vt 0.2299 0.5408 0.0000
vt 0.2382 0.5408 0.0000
vt 0.2441 0.5408 0.0000
vt 0.6886 0.3251 0.0000
vt 0.8786 0.2303 0.0000
vt 0.8786 0.2362 0.0000
vt 0.8786 0.2220 0.0000
vt 0.8786 0.1041 0.0000
vt 0.8786 0.0958 0.0000
vt 0.6886 0.0010 0.0000
vt 0.8786 0.0899 0.0000
vt 0.5453 0.8180 0.0000
vt 0.5453 0.8239 0.0000
vt 0.5453 0.8097 0.0000
vt 0.5453 0.6918 0.0000
vt 0.5453 0.6835 0.0000
vt 0.5453 0.6776 0.0000
vt 0.5289 0.3343 0.0000
vt 0.3388 0.4291 0.0000
vt 0.3388 0.4231 0.0000
vt 0.3388 0.4374 0.0000
# 96 texture coords

o Floor
g Floor
s 1
f 1/1/1 2/2/1 3/3/1 
f 3/3/1 4/4/1 5/5/1 
f 5/5/1 6/6/1 7/7/1 
f 3/3/1 5/5/1 7/7/1 
f 7/7/1 8/8/1 9/9/1 
f 9/9/1 10/10/1 11/11/1 
f 7/7/1 9/9/1 11/11/1 
f 11/11/1 12/12/1 13/13/1 
f 13/13/1 14/14/1 15/15/1 
f 11/11/1 13/13/1 15/15/1 
f 15/15/1 16/16/1 17/17/1 
f 17/17/1 18/18/1 19/19/1 
f 15/15/1 17/17/1 19/19/1 
f 11/11/1 15/15/1 19/19/1 
f 7/7/1 11/11/1 19/19/1 
f 3/3/1 7/7/1 19/19/1 
f 1/1/1 3/3/1 19/19/1 
f 20/20/1 1/1/1 19/19/1 
s 2
f 21/21/2 5/22/2 4/23/3 
f 4/23/3 22/24/3 21/21/2 
f 23/25/4 10/26/4 9/27/5 
f 9/27/5 24/28/5 23/25/4 
f 25/29/6 15/30/6 14/31/7 
f 14/31/7 26/32/7 25/29/6 
f 27/33/8 20/34/8 19/35/9 
f 19/35/9 28/36/9 27/33/8 
f 5/22/2 21/21/2 29/37/10 
f 29/37/10 6/38/10 5/22/2 
f 6/39/10 29/40/10 30/41/11 
f 30/41/11 7/42/11 6/39/10 
f 22/24/3 4/23/3 3/43/12 
f 3/43/12 31/44/12 22/24/3 
f 31/45/12 3/46/12 2/47/13 
f 2/47/13 32/48/13 31/45/12 
f 10/26/4 23/25/4 33/49/14 
f 33/49/14 11/50/14 10/26/4 
f 11/50/14 33/49/14 34/51/15 
f 34/51/15 12/52/15 11/50/14 
f 24/28/5 9/27/5 8/53/16 
f 8/53/16 35/54/16 24/28/5 
f 35/54/16 8/53/16 7/42/11 
f 7/42/11 30/41/11 35/54/16 
f 15/30/6 25/29/6 36/55/17 
f 36/55/17 16/56/17 15/30/6 
f 16/57/17 36/58/17 37/59/18 
f 37/59/18 17/60/18 16/57/17 
f 26/32/7 14/31/7 13/61/19 
f 13/61/19 38/62/19 26/32/7 
f 38/63/19 13/64/19 12/52/15 
f 12/52/15 34/51/15 38/63/19 
f 20/34/8 27/33/8 39/65/20 
f 39/65/20 1/66/20 20/34/8 
f 1/66/20 39/65/20 32/48/13 
f 32/48/13 2/47/13 1/66/20 
f 28/36/9 19/35/9 18/67/21 
f 18/67/21 40/68/21 28/36/9 
f 40/68/21 18/67/21 17/60/18 
f 17/60/18 37/59/18 40/68/21 
s off
f 22/24/22 31/44/22 41/69/22 
f 41/69/22 42/70/22 22/24/22 
f 31/44/23 32/71/23 43/72/23 
f 43/72/23 41/69/23 31/44/23 
f 32/48/24 39/65/24 44/73/24 
f 44/73/24 43/74/24 32/48/24 
f 39/65/25 27/33/25 45/75/25 
f 45/75/25 44/73/25 39/65/25 
f 27/33/26 28/36/26 46/76/26 
f 46/76/26 45/75/26 27/33/26 
f 28/36/27 40/68/27 47/77/27 
f 47/77/27 46/76/27 28/36/27 
f 40/68/28 37/59/28 48/78/28 
f 48/78/28 47/77/28 40/68/28 
f 37/79/29 36/55/29 49/80/29 
f 49/80/29 48/81/29 37/79/29 
f 36/55/30 25/29/30 50/82/30 
f 50/82/30 49/80/30 36/55/30 
f 25/29/31 26/32/31 51/83/31 
f 51/83/31 50/82/31 25/29/31 
f 26/32/32 38/62/32 52/84/32 
f 52/84/32 51/83/32 26/32/32 
f 38/62/33 34/85/33 53/86/33 
f 53/86/33 52/84/33 38/62/33 
f 34/51/34 33/49/34 54/87/34 
f 54/87/34 53/88/34 34/51/34 
f 33/49/35 23/25/35 55/89/35 
f 55/89/35 54/87/35 33/49/35 
f 23/25/36 24/28/36 56/90/36 
f 56/90/36 55/89/36 23/25/36 
f 24/28/37 35/54/37 57/91/37 
f 57/91/37 56/90/37 24/28/37 
f 35/54/38 30/41/38 58/92/38 
f 58/92/38 57/91/38 35/54/38 
f 30/93/39 29/37/39 59/94/39 
f 59/94/39 58/95/39 30/93/39 
f 29/37/40 21/21/40 60/96/40 
f 60/96/40 59/94/40 29/37/40 
f 21/21/41 22/24/41 42/70/41 
f 42/70/41 60/96/41 21/21/41 
# 98 faces

