# 3ds Max Wavefront OBJ Exporter v0.99 - (c)2007 guruware
# File Created: 26.04.2021 01:04:45

#
# object Turret
#

v  -0.4000 0.0000 0.4000
v  -0.4000 0.0000 -0.4000
v  0.4000 0.0000 -0.4000
v  0.4000 0.0000 0.4000
v  0.3516 0.3669 0.3516
v  -0.3516 0.3669 0.3516
v  0.3516 0.3669 -0.3516
v  -0.3516 0.3669 -0.3516
v  0.3005 0.3669 0.3005
v  -0.3005 0.3669 0.3005
v  0.3005 0.3669 -0.3005
v  -0.3005 0.3669 -0.3005
v  0.3005 0.4151 0.3005
v  -0.3005 0.4151 0.3005
v  0.3005 0.4151 -0.3005
v  -0.3005 0.4151 -0.3005
v  0.3430 0.4151 0.3430
v  -0.3430 0.4151 0.3430
v  0.3430 0.4151 -0.3430
v  -0.3430 0.4151 -0.3430
v  0.2766 0.7914 0.2766
v  -0.2766 0.7914 0.2766
v  0.2766 0.7914 -0.2766
v  -0.2766 0.7914 -0.2766
v  0.2123 0.7914 0.2123
v  -0.2123 0.7914 0.2123
v  0.2123 0.7914 -0.2123
v  -0.2123 0.7914 -0.2123
v  0.2123 0.8273 0.2123
v  -0.2123 0.8273 0.2123
v  0.2123 0.8273 -0.2123
v  -0.2123 0.8273 -0.2123
v  0.2612 0.8273 0.2612
v  -0.2612 0.8273 0.2612
v  0.2612 0.8273 -0.2612
v  -0.2612 0.8273 -0.2612
v  0.2235 1.0242 0.2235
v  0.1372 1.0242 0.2235
v  -0.1217 1.0242 0.2235
v  -0.2235 1.0242 0.2235
v  0.2235 1.0242 -0.2235
v  0.2235 1.0242 -0.1372
v  0.2235 1.0242 0.1217
v  -0.2235 1.0242 -0.2235
v  -0.1217 1.0242 -0.2235
v  0.1372 1.0242 -0.2235
v  -0.2235 1.0242 0.1217
v  -0.2235 1.0242 -0.1372
# 48 vertices

vn 0.0000 -1.0000 -0.0000
vn 0.0000 0.0963 0.9954
vn 0.9954 0.0963 -0.0000
vn 0.0000 0.0963 -0.9954
vn -0.9954 0.0963 -0.0000
vn 0.0000 1.0000 -0.0000
vn 0.0000 0.0000 1.0000
vn 1.0000 0.0000 -0.0000
vn 0.0000 0.0000 -1.0000
vn -1.0000 0.0000 -0.0000
vn 0.0000 0.1284 0.9917
vn 0.9917 0.1284 -0.0000
vn 0.0000 0.1284 -0.9917
vn -0.9917 0.1284 -0.0000
vn 0.0000 0.1392 0.9903
vn 0.9903 0.1392 -0.0000
vn 0.0000 0.1392 -0.9903
vn -0.9903 0.1392 -0.0000
# 18 vertex normals

vt 0.0484 0.4558 0.0000
vt 0.0484 0.3269 0.0000
vt 0.1773 0.3269 0.0000
vt 0.1773 0.4558 0.0000
vt 0.2943 0.0286 0.0000
vt 0.4232 0.0286 0.0000
vt 0.4154 0.1092 0.0000
vt 0.3021 0.1092 0.0000
vt 0.3002 0.1092 0.0000
vt 0.1713 0.1092 0.0000
vt 0.1791 0.0286 0.0000
vt 0.2924 0.0286 0.0000
vt 0.0464 0.2381 0.0000
vt 0.0464 0.1092 0.0000
vt 0.1269 0.1170 0.0000
vt 0.1269 0.2303 0.0000
vt 0.0484 0.0286 0.0000
vt 0.1773 0.0286 0.0000
vt 0.1695 0.1092 0.0000
vt 0.0562 0.1092 0.0000
vt 0.1310 0.1112 0.0000
vt 0.2443 0.1112 0.0000
vt 0.2361 0.1195 0.0000
vt 0.1393 0.1195 0.0000
vt 0.2443 0.2245 0.0000
vt 0.2361 0.2163 0.0000
vt 0.1310 0.2245 0.0000
vt 0.1393 0.2163 0.0000
vt 0.3653 0.1173 0.0000
vt 0.3653 0.2141 0.0000
vt 0.3548 0.2141 0.0000
vt 0.3548 0.1173 0.0000
vt 0.3412 0.1173 0.0000
vt 0.3412 0.2141 0.0000
vt 0.3306 0.2141 0.0000
vt 0.3306 0.1173 0.0000
vt 0.3532 0.1173 0.0000
vt 0.3532 0.2141 0.0000
vt 0.3427 0.2141 0.0000
vt 0.3427 0.1173 0.0000
vt 0.1794 0.3289 0.0000
vt 0.2762 0.3289 0.0000
vt 0.2762 0.3395 0.0000
vt 0.1794 0.3395 0.0000
vt 0.1863 0.4487 0.0000
vt 0.2831 0.4487 0.0000
vt 0.2899 0.4556 0.0000
vt 0.1794 0.4556 0.0000
vt 0.2831 0.3519 0.0000
vt 0.2899 0.3450 0.0000
vt 0.1863 0.3519 0.0000
vt 0.1794 0.3450 0.0000
vt 0.2459 0.2238 0.0000
vt 0.2459 0.1133 0.0000
vt 0.3285 0.1239 0.0000
vt 0.3285 0.2131 0.0000
vt 0.1492 0.2261 0.0000
vt 0.2597 0.2261 0.0000
vt 0.2490 0.3087 0.0000
vt 0.1599 0.3087 0.0000
vt 0.2923 0.4556 0.0000
vt 0.2923 0.3450 0.0000
vt 0.3749 0.3557 0.0000
vt 0.3749 0.4449 0.0000
vt 0.1589 0.3228 0.0000
vt 0.0484 0.3228 0.0000
vt 0.0591 0.2402 0.0000
vt 0.1482 0.2402 0.0000
vt 0.3769 0.3652 0.0000
vt 0.4661 0.3652 0.0000
vt 0.4557 0.3756 0.0000
vt 0.3873 0.3756 0.0000
vt 0.4661 0.4543 0.0000
vt 0.4557 0.4440 0.0000
vt 0.3769 0.4543 0.0000
vt 0.3873 0.4440 0.0000
vt 0.1592 0.3108 0.0000
vt 0.2277 0.3108 0.0000
vt 0.2277 0.3187 0.0000
vt 0.1592 0.3187 0.0000
vt 0.3507 0.2947 0.0000
vt 0.4191 0.2947 0.0000
vt 0.4191 0.3025 0.0000
vt 0.3507 0.3025 0.0000
vt 0.4755 0.3874 0.0000
vt 0.4755 0.4558 0.0000
vt 0.4676 0.4558 0.0000
vt 0.4676 0.3874 0.0000
vt 0.4211 0.1233 0.0000
vt 0.4211 0.1917 0.0000
vt 0.4132 0.1917 0.0000
vt 0.4132 0.1233 0.0000
vt 0.2699 0.2984 0.0000
vt 0.3383 0.2984 0.0000
vt 0.3462 0.3063 0.0000
vt 0.2620 0.3063 0.0000
vt 0.3383 0.2300 0.0000
vt 0.3462 0.2221 0.0000
vt 0.2699 0.2300 0.0000
vt 0.2620 0.2221 0.0000
vt 0.4730 0.1173 0.0000
vt 0.4730 0.2014 0.0000
vt 0.4293 0.1954 0.0000
vt 0.4293 0.1815 0.0000
vt 0.4293 0.1398 0.0000
vt 0.4293 0.1234 0.0000
vt 0.4730 0.0306 0.0000
vt 0.4730 0.1148 0.0000
vt 0.4293 0.1087 0.0000
vt 0.4293 0.0948 0.0000
vt 0.4293 0.0531 0.0000
vt 0.4293 0.0367 0.0000
vt 0.3669 0.2014 0.0000
vt 0.3669 0.1173 0.0000
vt 0.4105 0.1234 0.0000
vt 0.4105 0.1398 0.0000
vt 0.4105 0.1815 0.0000
vt 0.4105 0.1954 0.0000
vt 0.4730 0.2040 0.0000
vt 0.4730 0.2881 0.0000
vt 0.4293 0.2820 0.0000
vt 0.4293 0.2656 0.0000
vt 0.4293 0.2239 0.0000
vt 0.4293 0.2100 0.0000
vt 0.4068 0.2921 0.0000
vt 0.3651 0.2921 0.0000
vt 0.3487 0.2782 0.0000
vt 0.3487 0.2365 0.0000
vt 0.3651 0.2201 0.0000
vt 0.4068 0.2201 0.0000
vt 0.4207 0.2365 0.0000
vt 0.4207 0.2782 0.0000
vt 0.4207 0.2201 0.0000
vt 0.3487 0.2201 0.0000
vt 0.3487 0.2921 0.0000
vt 0.4207 0.2921 0.0000
# 136 texture coords

o Turret
g Turret
s 2
f 1/1/1 2/2/1 3/3/1 
f 3/3/1 4/4/1 1/1/1 
s 8
f 1/5/2 4/6/2 5/7/2 
f 5/7/2 6/8/2 1/5/2 
s 16
f 4/9/3 3/10/3 7/11/3 
f 7/11/3 5/12/3 4/9/3 
s 32
f 3/13/4 2/14/4 8/15/4 
f 8/15/4 7/16/4 3/13/4 
s 64
f 2/17/5 1/18/5 6/19/5 
f 6/19/5 8/20/5 2/17/5 
s off
f 6/21/6 5/22/6 9/23/6 
f 9/23/6 10/24/6 6/21/6 
f 5/22/6 7/25/6 11/26/6 
f 11/26/6 9/23/6 5/22/6 
f 7/25/6 8/27/6 12/28/6 
f 12/28/6 11/26/6 7/25/6 
f 8/27/6 6/21/6 10/24/6 
f 10/24/6 12/28/6 8/27/6 
f 10/29/7 9/30/7 13/31/7 
f 13/31/7 14/32/7 10/29/7 
f 9/33/8 11/34/8 15/35/8 
f 15/35/8 13/36/8 9/33/8 
f 11/37/9 12/38/9 16/39/9 
f 16/39/9 15/40/9 11/37/9 
f 12/41/10 10/42/10 14/43/10 
f 14/43/10 16/44/10 12/41/10 
f 14/45/1 13/46/1 17/47/1 
f 17/47/1 18/48/1 14/45/1 
f 13/46/1 15/49/1 19/50/1 
f 19/50/1 17/47/1 13/46/1 
f 15/49/1 16/51/1 20/52/1 
f 20/52/1 19/50/1 15/49/1 
f 16/51/1 14/45/1 18/48/1 
f 18/48/1 20/52/1 16/51/1 
f 18/53/11 17/54/11 21/55/11 
f 21/55/11 22/56/11 18/53/11 
f 17/57/12 19/58/12 23/59/12 
f 23/59/12 21/60/12 17/57/12 
f 19/61/13 20/62/13 24/63/13 
f 24/63/13 23/64/13 19/61/13 
f 20/65/14 18/66/14 22/67/14 
f 22/67/14 24/68/14 20/65/14 
f 22/69/6 21/70/6 25/71/6 
f 25/71/6 26/72/6 22/69/6 
f 21/70/6 23/73/6 27/74/6 
f 27/74/6 25/71/6 21/70/6 
f 23/73/6 24/75/6 28/76/6 
f 28/76/6 27/74/6 23/73/6 
f 24/75/6 22/69/6 26/72/6 
f 26/72/6 28/76/6 24/75/6 
f 26/77/7 25/78/7 29/79/7 
f 29/79/7 30/80/7 26/77/7 
f 25/81/8 27/82/8 31/83/8 
f 31/83/8 29/84/8 25/81/8 
f 27/85/9 28/86/9 32/87/9 
f 32/87/9 31/88/9 27/85/9 
f 28/89/10 26/90/10 30/91/10 
f 30/91/10 32/92/10 28/89/10 
f 30/93/1 29/94/1 33/95/1 
f 33/95/1 34/96/1 30/93/1 
f 29/94/1 31/97/1 35/98/1 
f 35/98/1 33/95/1 29/94/1 
f 31/97/1 32/99/1 36/100/1 
f 36/100/1 35/98/1 31/97/1 
f 32/99/1 30/93/1 34/96/1 
f 34/96/1 36/100/1 32/99/1 
f 34/101/15 33/102/15 37/103/15 
f 34/101/15 37/103/15 38/104/15 
f 34/101/15 38/104/15 39/105/15 
f 34/101/15 39/105/15 40/106/15 
f 33/107/16 35/108/16 41/109/16 
f 33/107/16 41/109/16 42/110/16 
f 33/107/16 42/110/16 43/111/16 
f 33/107/16 43/111/16 37/112/16 
f 35/113/17 36/114/17 44/115/17 
f 35/113/17 44/115/17 45/116/17 
f 35/113/17 45/116/17 46/117/17 
f 35/113/17 46/117/17 41/118/17 
f 36/119/18 34/120/18 40/121/18 
f 36/119/18 40/121/18 47/122/18 
f 36/119/18 47/122/18 48/123/18 
f 36/119/18 48/123/18 44/124/18 
s 1
f 46/125/6 45/126/6 48/127/6 
f 48/127/6 47/128/6 39/129/6 
f 46/125/6 48/127/6 39/129/6 
f 39/129/6 38/130/6 43/131/6 
f 46/125/6 39/129/6 43/131/6 
f 46/125/6 43/131/6 42/132/6 
f 38/130/6 37/133/6 43/131/6 
f 47/128/6 40/134/6 39/129/6 
f 45/126/6 44/135/6 48/127/6 
f 42/132/6 41/136/6 46/125/6 
# 92 faces

